/* XPM */
static char *bitcoin16[] = {
/* columns rows colors chars-per-pixel */
"16 16 127 2 ",
"   c black",
".  c #2F273D",
"X  c #30283D",
"o  c #31293F",
"O  c #312A3E",
"+  c #332A3F",
"@  c #322A40",
"#  c #322B40",
"$  c #352C41",
"%  c #342D41",
"&  c #352D41",
"*  c #352E42",
"=  c #362E43",
"-  c #372F43",
";  c #362E44",
":  c #383045",
">  c #3A3149",
",  c #3C3549",
"<  c #3C334C",
"1  c #3E3453",
"2  c #423A4E",
"3  c #433756",
"4  c #423855",
"5  c #423758",
"6  c #44365D",
"7  c #453A5A",
"8  c #4B4555",
"9  c #4D4558",
"0  c #4D4659",
"q  c #4D475A",
"w  c #575065",
"e  c #5A5263",
"r  c #5D5767",
"t  c #5C5668",
"y  c #524371",
"u  c #514072",
"i  c #524273",
"p  c #544473",
"a  c #544477",
"s  c #564477",
"d  c #594D71",
"f  c #574778",
"g  c #5A4A79",
"h  c #5A4A7A",
"j  c #5A4A7B",
"k  c #5B4A7B",
"l  c #5C4B7C",
"z  c #5C4C7C",
"x  c #5D4D7C",
"c  c #5E5274",
"v  c #625B6D",
"b  c #625A70",
"n  c #60507F",
"m  c #686271",
"M  c #696473",
"N  c #AAFF55",
"B  c #5E4D80",
"V  c #645484",
"C  c #675A83",
"Z  c #6C5D88",
"A  c #6C5E89",
"S  c #6C5E8A",
"D  c #71638B",
"F  c #71638D",
"G  c #73678C",
"H  c #7F7B86",
"J  c #786B93",
"K  c #796B93",
"L  c #786A94",
"P  c #7A6D94",
"I  c #7C6F96",
"U  c #7D7095",
"Y  c #7C7096",
"T  c #7D7197",
"R  c #867A9E",
"E  c #8C8793",
"W  c #918D99",
"Q  c #928F9A",
"!  c #99959F",
"~  c #8C80A4",
"^  c #968BAB",
"/  c #988EAD",
"(  c #9A8FAF",
")  c #9894A0",
"_  c #9F99A4",
"`  c #9E94B4",
"'  c #A39FA9",
"]  c #A198B4",
"[  c #A39AB5",
"{  c #A399B6",
"}  c #A49AB7",
"|  c #A59CB6",
" . c #A69CB8",
".. c #A69DB8",
"X. c #A89EB9",
"o. c #AEACB4",
"O. c #AFADB5",
"+. c #AAA1BB",
"@. c #ABA3BC",
"#. c #AEA5BF",
"$. c #B1AEB6",
"%. c #BAB7BF",
"&. c #80FF80",
"*. c #B1A8C1",
"=. c #B4ADC2",
"-. c #B9B1C7",
";. c #BDBAC3",
":. c #BAB2C8",
">. c #BDB5C9",
",. c #BCB6CA",
"<. c #C0BDC4",
"1. c #C1BBCD",
"2. c #C3BDCD",
"3. c #C3BDCE",
"4. c #C4C4CB",
"5. c #C9C5D3",
"6. c #CDC7D7",
"7. c gray89",
"8. c #E0E0E6",
"9. c #E3E3EA",
"0. c #E6FFE6",
"q. c #EDFFED",
"w. c #FFFFEA",
"e. c #EBE6F0",
"r. c #F2FFF2",
"t. c gray100",
"y. c None",
/* pixels */
"y.                              ",
"        t.t.8.%.2.e.r.N         ",
"    7.o.Q H M w D R / X.,.9.    ",
"    $.e 3 y i a a u s j L >.    ",
"    $.8 7 B ~ .. .( V k A :.    ",
"    $.9 < g F Y K ] @.f S :.    ",
"    $.q & d } | J z 1.x S :.    ",
"    $.q * < C I P [ +.f S :.    ",
"    $.q = . ) =.{ ^ n h S :.    ",
"    O.0 ; X ! b 6 p z l Z -.    ",
"    <.v + @ W r # > 4 5 U 5.    ",
"    t._ 0 o 2 , : - O c #.0.    ",
"      t.' m @ $ % 1 T *.t.      ",
"        &.4.E t G ` 6.N         ",
"            w.;.3.q.            ",
"                                "
};
