/* XPM */
static char *bitcoin32[] = {
/* columns rows colors chars-per-pixel */
"32 32 144 2 ",
"   c #2A2037",
".  c #2A2138",
"X  c #2D233A",
"o  c #2E243C",
"O  c #2F263E",
"+  c #322A3F",
"@  c #322B3F",
"#  c #332B40",
"$  c #332E41",
"%  c #362E43",
"&  c #372F43",
"*  c #362D44",
"=  c #382F45",
"-  c #373043",
";  c #373044",
":  c #383046",
">  c #393148",
",  c #3C334C",
"<  c #3D344D",
"1  c #3F344F",
"2  c #40384C",
"3  c #40394C",
"4  c #403652",
"5  c #423653",
"6  c #443E51",
"7  c #463E52",
"8  c #43375A",
"9  c #493D5F",
"0  c #4B3E62",
"q  c #503E73",
"w  c #494154",
"e  c #4D4458",
"r  c #4F416A",
"t  c #50436A",
"y  c #52456D",
"u  c #585263",
"i  c #595364",
"p  c #5A5366",
"a  c #5D5768",
"s  c #524073",
"d  c #554671",
"f  c #514075",
"g  c #564677",
"h  c #584976",
"j  c #5B4D76",
"k  c #544378",
"l  c #544478",
"z  c #584779",
"x  c #584879",
"c  c #5A4B7A",
"v  c #5B4A7B",
"b  c #5B4B7B",
"n  c #5B4B7D",
"m  c #5C4B7D",
"M  c #5C4C7C",
"N  c #5D4C7C",
"B  c #5C4D7C",
"V  c #5F4F7F",
"C  c #605A6B",
"Z  c #655F6F",
"A  c #6D6776",
"S  c #5E4D80",
"D  c #604F80",
"F  c #615281",
"G  c #635482",
"H  c #645483",
"J  c #675885",
"K  c #685986",
"L  c #685A86",
"P  c #6A5B87",
"I  c #6A5C87",
"U  c #6D5B8A",
"Y  c #70638C",
"T  c #797383",
"R  c #7E7887",
"E  c #746691",
"W  c #766890",
"Q  c #7B6D94",
"!  c #7A6C95",
"~  c #7B6C98",
"^  c #81749A",
"/  c #83779B",
"(  c #83779C",
")  c #84779C",
"_  c #857B9A",
"`  c #878290",
"'  c #888292",
"]  c #8C8794",
"[  c #908B97",
"{  c #908A98",
"}  c #918C9A",
"|  c #948F9B",
" . c #95909C",
".. c #97949E",
"X. c #9388A8",
"o. c #9488AD",
"O. c #978CAF",
"+. c #988EAD",
"@. c #9A96A2",
"#. c #9C98A3",
"$. c #9C93B0",
"%. c #9E94B1",
"&. c #A095B2",
"*. c #A095B5",
"=. c #A299B4",
"-. c #A69DB7",
";. c #A89FBA",
":. c #A89FBC",
">. c #ADAAB3",
",. c #A9A1BA",
"<. c #ABA3BC",
"1. c #B1AFB7",
"2. c #B7B0C6",
"3. c #BBB5C9",
"4. c #BCB5C9",
"5. c #BFB8CB",
"6. c #C2BCCF",
"7. c #C4BECF",
"8. c #C2C0C6",
"9. c #C9C6CD",
"0. c #C8C3D3",
"q. c #CBC6D5",
"w. c #CCC7D6",
"e. c #CDCCD1",
"r. c #D3CEDC",
"t. c #D2D0D5",
"y. c #D5D4D8",
"u. c #D5D1DD",
"i. c #D9D6E1",
"p. c #DCD9E3",
"a. c #E1DEE7",
"s. c #E5E2EB",
"d. c #E9E7EE",
"f. c #EBE9EF",
"g. c #ECEAEC",
"h. c #EDEDEE",
"j. c #EEECF1",
"k. c #F0EFF3",
"l. c #F2F1F4",
"z. c #F4F2F6",
"x. c #F7F6F8",
"c. c #FBFBFB",
"v. c #FEFFFE",
"b. c None",
/* pixels */
"b.b.b.b.b.b.b.b.b.b.b.b.b.b.b.b.b.b.b.b.b.b.b.b.b.b.b.b.b.b.b.b.",
"b.b.b.b.b.b.b.b.b.b.b.b.b.b.b.b.b.b.b.b.b.b.b.b.b.b.b.b.b.b.b.b.",
"b.b.b.b.b.b.b.b.b.b.b.b.b.b.b.b.b.b.b.b.b.b.b.b.b.b.b.b.b.b.b.b.",
"b.b.b.b.b.b.b.b.b.b.b.b.g.e.>.} =.4.u.j.b.b.b.b.b.b.b.b.b.b.b.b.",
"b.b.b.b.b.b.b.h.t.1.| T p 2 + O s v G ~ o.;.5.i.j.b.b.b.b.b.b.b.",
"b.b.b.b.b.8.R a 7 #   b.b.b.b.b.b.b.b.b.b.f n P Q o.q.b.b.b.b.b.",
"b.b.b.b.b.]   b.b.b.b.b.D M M M M n B M b.b.b.b.b.f $.b.b.b.b.b.",
"b.b.b.b.b.[ b.$ 5 v D D S m v l v x n S D S M M M b.&.b.b.b.b.b.",
"b.b.b.b.b.[ b.% < h M v K / / / ~ / W M z M M F M b.&.b.b.b.b.b.",
"b.b.b.b.b.[ b.* : y M g X.l.k.k.l.l.x.p.^ z M S M b.&.b.b.b.b.b.",
"b.b.b.b.b.[ b.* % 9 M M V I K K I L Q w.x.E v M M b.&.b.b.b.b.b.",
"b.b.b.b.b.[ b.* - 4 M m g g g g g c l F f.3.l S M b.&.b.b.b.b.b.",
"b.b.b.b.b.[ b.* : - r ! 0.0.0.0.2.F v g 7.p.v S M b.&.b.b.b.b.b.",
"b.b.b.b.b.[ b.* : % 1 Y ,.,.,.,.%.M v g q.u.v M M b.&.b.b.b.b.b.",
"b.b.b.b.b.[ b.* : - - r l q s s f h f Y x.<.l S M b.&.b.b.b.b.b.",
"b.b.b.b.b.[ b.* : - % : j ^ / ( ) ) $.d.a.J B S M b.&.b.b.b.b.b.",
"b.b.b.b.b.[ b.* : ; % + p v.z.j.k.j.d.3.I v B S M b.&.b.b.b.b.b.",
"b.b.b.b.b.[ b.* : ; - + u c._ H K J F g v M n S M b.&.b.b.b.b.b.",
"b.b.b.b.b.[ b.* : ; * % u c.Z 8 h N N N M M M S M b.&.b.b.b.b.b.",
"b.b.b.b.b.[ b.% : ; % + u c.Z + , 0 g B S M M D M b.%.b.b.b.b.b.",
"b.b.b.b.b...b.* : : & @ i c.Z + - % : 4 0 t d b c b.-.b.b.b.b.b.",
"b.b.b.b.b.9.e b.: : = # i v.Z + ; % - % % % > > b.U w.b.b.b.b.b.",
"b.b.b.b.b.b.@.= b.: : % 3 A 7 % * * : % % : : b.M <.b.b.b.b.b.b.",
"b.b.b.b.b.b.b.{ = b.: : * + % % ; ; - : - % b.M *.b.b.b.b.b.b.b.",
"b.b.b.b.b.b.b.b.#.6 b.b.: : : : * : : ; b.b.H :.b.b.b.b.b.b.b.b.",
"b.b.b.b.b.b.b.b.b.6.C X b.b.: : : : b.b.k E 6.b.b.b.b.b.b.b.b.b.",
"b.b.b.b.b.b.b.b.b.b.h. .w . b.b.b.b.l H *.s.b.b.b.b.b.b.b.b.b.b.",
"b.b.b.b.b.b.b.b.b.b.b.b.y.` 2 o f F O.r.b.b.b.b.b.b.b.b.b.b.b.b.",
"b.b.b.b.b.b.b.b.b.b.b.b.b.b.e.' +.r.b.b.b.b.b.b.b.b.b.b.b.b.b.b.",
"b.b.b.b.b.b.b.b.b.b.b.b.b.b.b.b.b.b.b.b.b.b.b.b.b.b.b.b.b.b.b.b.",
"b.b.b.b.b.b.b.b.b.b.b.b.b.b.b.b.b.b.b.b.b.b.b.b.b.b.b.b.b.b.b.b.",
"b.b.b.b.b.b.b.b.b.b.b.b.b.b.b.b.b.b.b.b.b.b.b.b.b.b.b.b.b.b.b.b."
};
