/* XPM */
static char *bitcoin64[] = {
/* columns rows colors chars-per-pixel */
"48 48 94 2 ",
"   c #2E263C",
".  c #31273E",
"X  c #31293E",
"o  c #362E43",
"O  c #382F45",
"+  c #373044",
"@  c #393146",
"#  c #3C334B",
"$  c #3F3451",
"%  c #433A53",
"&  c #473C5D",
"*  c #483C5E",
"=  c #4B3F63",
"-  c #503E72",
";  c #4B4357",
":  c #534C5F",
">  c #4F4169",
",  c #51436B",
"<  c #5B5467",
"1  c #5D5669",
"2  c #554576",
"3  c #574874",
"4  c #584A76",
"5  c #574678",
"6  c #58477A",
"7  c #5C4B7C",
"8  c #5F507D",
"9  c #625B6D",
"0  c #60517F",
"q  c #676072",
"w  c #6B6475",
"e  c #706B7A",
"r  c #5F4F80",
"t  c #604F81",
"y  c #625281",
"u  c #675886",
"i  c #6D5E8A",
"p  c #70628E",
"a  c #777283",
"s  c #7C7685",
"d  c #766793",
"f  c #796B95",
"g  c #7C6E9A",
"h  c #7D7196",
"j  c #7F719A",
"k  c #827C8B",
"l  c #81749B",
"z  c #85799E",
"x  c #8577A0",
"c  c #8678A1",
"v  c #868290",
"b  c #898492",
"n  c #918B98",
"m  c #9186A6",
"M  c #958AAC",
"N  c #988EAD",
"B  c #9995A0",
"V  c #9F9BA6",
"C  c #9C92AF",
"Z  c #9D94B2",
"A  c #A096B3",
"S  c #A69DB9",
"D  c #A9A5AF",
"F  c #ADA5BC",
"G  c #B0ADB5",
"H  c #B5B1BB",
"J  c #B6AEC4",
"K  c #B8B1C6",
"L  c #BFBCC3",
"P  c #BCB4CB",
"I  c #BFB9CB",
"U  c #C2BCCF",
"Y  c #C3BED1",
"T  c #C8C6CC",
"R  c #CAC5D5",
"E  c #CECBD4",
"W  c #D1CFD3",
"Q  c #D2CDDB",
"!  c #D6D2DE",
"~  c #DAD8DD",
"^  c #D8D4E0",
"/  c #DFDCE5",
"(  c #E0DEE4",
")  c #E3E2E5",
"_  c #E5E3EA",
"`  c #E8E6EC",
"'  c #EDECEF",
"]  c #ECEAF0",
"[  c #F0EEF4",
"{  c #F4F3F5",
"}  c #F5F4F8",
"|  c #F9F7FA",
" . c #FEFEFE",
".. c None",
/* pixels */
"................................................................................................",
"................................................................................................",
"................................................................................................",
"................................................................................................",
".......................................... .| / _ |  ...........................................",
"................................ . .) T D k < % 8 f N P Q ` |  .................................",
"...................... . .` E G b 9 % + X o X @ 5 6 7 6 7 u l Z P ^ ]  . .......................",
".............. .' W H n q ; + X   X + + O ............7 7 7 7 5 6 r i c S Y ^ ]  ...............",
"..............{ w + X   X o ........................................7 2 2 2 r x [ ..............",
"..............' 1 + ................8 7 8 7 8 r r 8 7 7 8 7 ..................d ] ..............",
"..............[ 1 ......# 4 7 8 8 r t t 7 8 7 7 7 7 8 7 r r r r 7 r 7 r ......d ] ..............",
"..............' 1 ....# @ 3 8 7 7 7 7 5 7 7 7 7 7 7 7 7 7 7 7 8 7 7 r t u ....d ' ..............",
"..............' 1 ....@ + > 7 7 8 7 8 t r y y 8 y y y 8 2 2 8 7 7 7 7 7 r ....d ] ..............",
"..............[ 1 ....@ + * 7 7 7 6 p _ ] ] ] ] ] ] ` ( I c 6 7 7 8 7 7 r ....d ] ..............",
"..............' 1 ....@ + $ 7 7 7 6 p ` ` ] ` ` ` ` ` |  . .K 8 7 7 7 r r ....d ' ..............",
"..............' 1 ....@ + @ 3 7 7 7 7 y y y y y 8 8 0 i Z [ | J 2 7 7 r t ....d ] ..............",
"..............' 1 ....@ o o = 8 7 7 7 7 7 7 7 7 5 7 7 4 2 l { { j 6 7 7 r ....d ] ..............",
"..............' 1 ....@ o o % 7 7 7 2 2 2 2 2 2 5 5 7 7 7 2 U  .F 2 8 7 r ....d ] ..............",
"..............[ 1 ....@ o o o , 7 j F F F J F F F f 4 7 7 2 Z  .R 2 7 7 r ....d ] ..............",
"..............[ 1 ....@ o o o % 5 A  . . . . . . .N 5 7 7 2 N  .R 7 7 7 r ....d ] ..............",
"..............[ 1 ....@ + o + o > u p d d p p d d y 7 7 7 2 F  .P 2 8 8 t ....d ] ..............",
"..............' 1 ....@ @ o o o $ 4 7 7 7 4 7 4 4 7 7 7 7 7 / | N 2 7 7 t ....d ] ..............",
"..............' 9 ....@ + o o O o & 8 5 4 5 5 5 5 5 5 2 8 K  .( u 7 7 r r ....d ] ..............",
"..............' 1 ....@ @ o + o o o > l m m m m m m M S /  .' z 2 7 7 r r ....d ] ..............",
"..............[ 1 ....@ @ + o + + + @ W  . . . . . . . . .! h 2 8 7 7 r r ....d ' ..............",
"..............' 1 ....@ + o + o o + X T  .Y S S F F S C j 8 5 7 7 7 7 7 r ....d ] ..............",
"..............' 1 ....@ + o o O + o X T  .h - 2 2 2 2 2 5 7 8 7 7 7 7 8 t ....d ] ..............",
"..............{ 1 ....@ + + + o + o X T  .e $ 4 7 7 7 7 8 7 7 7 7 7 7 7 r ....d ' ..............",
"..............' 1 ....@ + o o @ o + X T  .e X @ = 4 7 7 7 7 7 7 7 7 7 7 r ....d ] ..............",
"..............' 1 ....@ + + o o O o o T  .e X o o # * 3 7 7 r 8 7 7 7 7 t ....d ] ..............",
"..............{ 9 ....+ o + o o + + X T  .e X o o o o O $ * , 5 7 7 r r r ....f [ ..............",
".............. .k o ..O @ + @ o o @ X T  .e X o + o o o o o O @ $ % & = , ..7 M  ...............",
"................T # ....@ + + + + o o E  .e   o o + o O O o o o o o o o ....r R ................",
"................ .v o ....@ @ + o O o s B : o + O o + o o o + O + + + ....6 M  .................",
"..................' q X ....O @ + O O X   o o o o @ o @ O O O + @ @ ....7 g ' ..................",
"....................` q o ......+ @ o O + + o o o o o o O O @ @ ......7 f _ ....................",
"......................' a o o ....@ @ + o O o O + o O o @ @ O ......7 x ` ......................",
"........................| V $ X ......@ @ @ o o @ o @ @ @ ......7 r A } ........................",
".......................... .T 9 o o ......+ @ @ @ @ @ ......8 2 p Y  ...........................",
"..............................[ V % . O ......O @ ......r 5 t Z _ ..............................",
"................................ .~ s O X O ........8 7 r l E  .................................",
".................................... .T w o o @ 7 7 6 d U | ....................................",
"........................................ .L w O 5 h U | ........................................",
"............................................| T R | ............................................",
"................................................................................................",
"................................................................................................",
"................................................................................................",
"................................................................................................"
};
